<svg id="svg" xmlns="http://www.w3.org/2000/svg" xmlns:xlink="http://www.w3.org/1999/xlink" width="400" height="543.3447098976109" viewBox="0, 0, 400,543.3447098976109"><g id="svgg"><path id="path0" d="M84.163 4.092 C 84.675 6.651,84.279 9.033,83.105 10.450 C 81.396 12.513,81.685 12.630,86.337 11.758 C 91.373 10.816,91.427 10.852,90.122 14.284 C 87.439 21.340,84.276 26.396,78.891 32.238 C 72.439 39.238,70.014 39.977,73.103 34.003 C 76.574 27.291,74.692 28.121,68.877 35.866 C 65.929 39.792,63.199 43.311,62.809 43.686 C 62.419 44.061,60.484 46.519,58.509 49.147 C 56.533 51.775,53.671 55.341,52.147 57.073 C 48.285 61.461,35.326 101.234,34.500 111.235 C 34.126 115.756,32.661 121.486,31.245 123.969 C 29.828 126.452,28.655 129.524,28.639 130.795 C 28.622 132.066,27.420 135.725,25.967 138.927 C 24.514 142.128,22.897 147.027,22.375 149.812 L 21.425 154.877 24.679 152.716 C 26.469 151.528,28.253 149.394,28.643 147.974 C 30.742 140.332,35.198 149.732,33.367 157.939 C 31.683 165.483,31.191 166.553,29.406 166.553 C 28.410 166.553,27.223 167.525,26.767 168.712 C 25.297 172.545,25.884 176.109,27.986 176.109 C 29.399 176.109,30.034 177.528,30.034 180.684 C 30.034 183.200,30.732 187.259,31.584 189.704 C 32.754 193.062,32.743 194.391,31.538 195.136 C 29.497 196.398,31.085 200.683,33.593 200.683 C 34.670 200.683,35.495 199.315,35.495 197.531 C 35.495 195.797,36.368 193.186,37.435 191.729 C 39.152 189.384,39.300 190.415,38.718 200.683 C 37.848 216.052,36.702 221.050,35.587 214.334 C 34.865 209.982,34.430 209.595,30.708 209.990 C 24.820 210.615,24.288 211.606,23.202 223.957 C 22.618 230.605,21.515 235.536,20.469 236.183 C 19.504 236.779,19.077 238.211,19.520 239.364 C 19.962 240.518,19.591 241.706,18.695 242.005 C 17.652 242.353,17.055 245.837,17.038 251.675 C 17.017 258.771,17.420 260.645,18.849 260.096 C 20.227 259.568,20.585 260.670,20.280 264.508 C 19.895 269.347,20.080 269.610,23.678 269.355 L 27.482 269.086 26.553 276.523 C 25.475 285.153,25.722 285.331,31.189 279.863 C 36.733 274.320,42.561 274.224,37.695 279.756 C 35.153 282.645,33.450 290.785,35.386 290.785 C 36.197 290.785,36.860 289.900,36.860 288.818 C 36.860 286.163,38.623 285.248,40.958 286.691 C 42.595 287.703,42.601 288.394,40.995 291.395 C 39.350 294.468,39.392 295.126,41.324 296.603 C 44.227 298.821,45.466 304.584,43.596 307.167 C 42.479 308.710,41.942 308.794,41.421 307.509 C 40.429 305.065,38.658 305.404,37.857 308.191 C 37.479 309.505,36.727 311.655,36.186 312.969 C 35.335 315.037,36.032 315.358,41.378 315.358 C 44.910 315.358,47.784 314.669,48.091 313.748 C 48.936 311.212,53.242 313.597,53.242 316.600 C 53.242 318.081,53.857 319.672,54.608 320.137 C 56.677 321.415,56.240 327.089,53.925 329.010 C 51.441 331.072,51.173 338.289,53.584 338.200 C 58.959 338.000,60.918 338.917,62.389 342.321 C 64.563 347.353,71.108 372.093,71.961 378.498 C 73.135 387.327,74.477 384.155,76.290 368.259 C 79.295 341.922,80.246 337.261,82.039 340.091 C 82.696 341.130,83.244 343.362,83.256 345.051 C 83.282 348.995,85.761 349.025,87.213 345.099 C 88.242 342.317,88.468 342.488,90.036 347.238 C 90.973 350.078,91.377 352.764,90.933 353.208 C 90.489 353.652,90.819 354.850,91.666 355.870 C 92.512 356.890,93.205 360.321,93.205 363.495 C 93.205 366.668,94.011 370.498,94.997 372.005 C 95.982 373.511,97.006 377.201,97.271 380.205 C 97.999 388.451,103.572 405.279,106.567 408.273 C 108.023 409.730,109.215 411.843,109.215 412.969 C 109.215 414.096,109.684 415.017,110.258 415.017 C 111.682 415.017,116.041 425.314,116.041 428.678 C 116.041 432.033,117.239 432.147,119.543 429.010 C 121.812 425.921,124.841 432.752,123.714 438.414 C 122.507 444.470,127.008 447.368,130.817 442.987 C 134.252 439.036,134.513 436.234,131.912 431.248 C 130.889 429.288,127.714 421.609,124.856 414.184 C 121.997 406.758,119.049 400.276,118.304 399.778 C 117.560 399.281,116.843 396.824,116.713 394.318 C 116.583 391.812,114.577 382.389,112.255 373.379 C 105.414 346.833,103.450 331.209,102.731 297.611 C 102.369 280.717,101.487 266.166,100.771 265.275 C 99.942 264.244,99.966 262.728,100.837 261.101 C 101.589 259.695,104.085 247.418,106.385 233.818 C 108.684 220.217,111.106 207.659,111.765 205.910 C 112.425 204.161,113.717 198.123,114.636 192.491 C 115.555 186.860,117.170 180.890,118.224 179.225 C 122.346 172.717,126.065 161.456,126.242 154.949 C 126.432 147.983,132.714 135.694,135.276 137.277 C 135.911 137.670,138.660 133.564,141.385 128.153 C 163.915 83.415,201.683 39.217,244.905 7.012 L 254.316 0.000 168.830 -0.000 L 83.345 -0.000 84.163 4.092 M15.017 210.922 C 15.017 212.799,15.631 214.334,16.382 214.334 C 17.133 214.334,17.747 212.799,17.747 210.922 C 17.747 209.044,17.133 207.509,16.382 207.509 C 15.631 207.509,15.017 209.044,15.017 210.922 M29.839 252.829 C 28.394 255.450,28.025 255.587,27.618 253.655 C 27.350 252.381,27.911 249.923,28.864 248.194 C 30.309 245.574,30.678 245.437,31.085 247.369 C 31.353 248.643,30.792 251.101,29.839 252.829 M27.445 265.251 C 25.693 267.003,23.916 265.649,25.214 263.550 C 25.716 262.737,26.753 262.458,27.517 262.930 C 28.449 263.507,28.426 264.270,27.445 265.251 M43.686 331.058 C 43.686 332.196,44.900 333.106,46.416 333.106 C 49.671 333.106,50.038 331.009,46.987 329.839 C 43.936 328.668,43.686 328.760,43.686 331.058 " stroke="none" fill="#000000" fill-rule="evenodd"></path></g></svg>